<svg xmlns="http://www.w3.org/2000/svg" xmlns:xlink="http://www.w3.org/1999/xlink" id="Layer_1" x="0px" y="0px" viewBox="0 0 720 720" style="enable-background:new 0 0 720 720;" xml:space="preserve"><style type="text/css">	.st0{clip-path:url(#SVGID_2_);fill:url(#SVGID_3_);}	.st1{clip-path:url(#SVGID_5_);fill:url(#SVGID_6_);}	.st2{clip-path:url(#SVGID_8_);fill:url(#SVGID_9_);}	.st3{fill:#243E90;}	.st4{fill:#F26722;}</style><g>	<defs>		<polygon id="SVGID_1_" points="355.7,33.1 414.8,133 357.8,230.8 335.3,192.3 370.8,132.2 356.5,108 133.5,501.7 90.4,502   "></polygon>	</defs>	<clipPath id="SVGID_2_">		<use xlink:href="#SVGID_1_" style="overflow:visible;"></use>	</clipPath>	<linearGradient id="SVGID_3_" gradientUnits="userSpaceOnUse" x1="90.4218" y1="267.527" x2="414.8429" y2="267.527">		<stop offset="0" style="stop-color:#BD5027"></stop>		<stop offset="0.38" style="stop-color:#F36D21"></stop>		<stop offset="1" style="stop-color:#FBAD18"></stop>	</linearGradient>	<rect x="90.4" y="33.1" class="st0" width="324.4" height="468.9"></rect></g><g>	<defs>		<polygon id="SVGID_4_" points="161.8,502 180.4,468.1 423.8,467.8 409.2,445.3 192.6,446.3 324.1,216.2 344.8,252.1 256,411.1    391.7,412 357,353.9 336.6,389.7 294.8,390.2 358.9,277.3 487.2,501.2   "></polygon>	</defs>	<clipPath id="SVGID_5_">		<use xlink:href="#SVGID_4_" style="overflow:visible;"></use>	</clipPath>	<linearGradient id="SVGID_6_" gradientUnits="userSpaceOnUse" x1="161.7796" y1="359.0794" x2="487.2332" y2="359.0794">		<stop offset="0" style="stop-color:#003F5C"></stop>		<stop offset="0.19" style="stop-color:#00658C"></stop>		<stop offset="0.38" style="stop-color:#0087B4"></stop>		<stop offset="0.79" style="stop-color:#25BBEA"></stop>		<stop offset="1" style="stop-color:#18BEF0"></stop>	</linearGradient>	<rect x="161.8" y="216.2" class="st1" width="325.5" height="285.8"></rect></g><g>	<defs>		<polygon id="SVGID_7_" points="428.6,154.5 406.3,193.6 562,468.1 538.1,468.2 393.6,216.4 371.8,254.8 512,500.4 625.2,500.6      "></polygon>	</defs>	<clipPath id="SVGID_8_">		<use xlink:href="#SVGID_7_" style="overflow:visible;"></use>	</clipPath>	<linearGradient id="SVGID_9_" gradientUnits="userSpaceOnUse" x1="607.9243" y1="430.5557" x2="389.104" y2="224.5173">		<stop offset="0" style="stop-color:#214082"></stop>		<stop offset="0.22" style="stop-color:#1C62AF"></stop>		<stop offset="0.56" style="stop-color:#1C69B3"></stop>		<stop offset="1" style="stop-color:#008FD0"></stop>	</linearGradient>	<rect x="371.8" y="154.5" class="st2" width="253.4" height="346.1"></rect></g><path d="M423.7,53.9L423.7,53.9h4.7c1,0,1.8-0.3,2.4-0.8c0.6-0.5,0.8-1.2,0.8-2.2c0-0.9-0.3-1.7-0.8-2.2c-0.6-0.5-1.3-0.8-2.4-0.8 h-4.7V53.9z M419.4,65.8V44.5h2.1h6.9c2.5,0,4.3,0.5,5.6,1.4c1.3,0.9,1.9,2.3,1.9,4.1c0,2-0.6,3.5-1.8,4.5c-0.7,0.5-1.6,0.9-2.6,1.2 h0.2c1,0,1.9,0.4,2.7,1.3c0.7,0.8,1.1,1.9,1.2,3.2l0.1,1.9c0.1,1.1,0.1,2,0.2,2.6c0.1,0.6,0.2,1,0.3,1.2h-2.1H432 c-0.2,0-0.3-0.4-0.5-1c-0.1-0.7-0.3-1.8-0.4-3.4l-0.1-1.4c-0.1-0.9-0.5-1.5-1.2-2c-0.8-0.5-1.8-0.7-3.1-0.7h-3.1v8.5h-2.1H419.4z  M441.7,55.2c0-4-1.4-7.4-4.1-10.2c-2.8-2.8-6.1-4.2-10.1-4.2c-4,0-7.4,1.4-10.1,4.2c-2.8,2.8-4.1,6.2-4.1,10.2 c0,4,1.4,7.4,4.2,10.2c2.8,2.8,6.1,4.2,10.1,4.2c4,0,7.4-1.4,10.1-4.2C440.3,62.6,441.7,59.2,441.7,55.2z M427.4,36.6 c5.2,0,9.6,1.8,13.2,5.4c3.6,3.6,5.4,8,5.4,13.2c0,5.2-1.8,9.6-5.4,13.2c-3.6,3.6-8,5.4-13.2,5.4c-5.2,0-9.6-1.8-13.2-5.4 c-3.6-3.6-5.4-8-5.4-13.2c0-5.2,1.8-9.6,5.4-13.2C417.8,38.4,422.2,36.6,427.4,36.6z"></path><path class="st3" d="M15.8,591.6h14.6c0,3.1,1.1,5.4,3.2,7.1c2.1,1.7,4.6,2.5,7.4,2.5c2.7,0,5-0.9,6.9-2.7c1.9-1.8,2.9-4.1,2.9-6.8 c0-3.7-1.2-6.5-3.6-8.2c-2.4-1.7-5-3-7.9-4c-0.3-0.1-0.6-0.3-0.9-0.4c-0.3-0.1-0.6-0.2-0.9-0.3c-0.2-0.1-0.4-0.1-0.6-0.2 c-0.2-0.1-0.4-0.1-0.6-0.2c-2.2-0.7-4.4-1.6-6.3-2.5c-2-0.9-3.8-2.3-5.6-4c-1.6-1.6-2.8-3.5-3.8-5.6c-1-2.1-1.7-4.3-2-6.5 c0-0.4,0-0.8-0.1-1.2c0-0.4-0.1-0.8-0.1-1.2c0-6.2,2.2-11.3,6.6-15.4c4.4-4.1,9.6-6.1,15.6-6.1c5.9,0,11,2.1,15.5,6.3 c4.5,4.2,6.7,9.2,6.6,15.2l-14.4-0.1c-0.1-2.3-1-4.2-2.7-5.6c-1.7-1.4-3.6-2.1-5.8-2.1c-2.2,0-4.1,0.7-5.4,2.2c-1.4,1.5-2,3.3-2,5.5 c0,0,0,0,0,0.1c0,0,0,0.1,0,0.1s0,0,0,0.1c0,0,0,0.1,0,0.1c-0.1,2.5,0.7,4.3,2.5,5.6c1.7,1.3,3.6,2.3,5.6,3.1 c0.2,0.1,0.4,0.2,0.7,0.3c0.3,0.1,0.5,0.2,0.7,0.3c0.3,0.1,0.7,0.3,1,0.4c0.3,0.1,0.7,0.2,1,0.4c2.3,0.7,4.5,1.6,6.7,2.5 c2.1,0.9,4.1,2.2,6,3.7c2.7,2.1,4.7,4.6,6,7.4c1.3,2.8,1.9,6.1,1.9,9.8c0,6.7-2.4,12.4-7.3,17c-4.8,4.6-10.6,6.8-17.3,6.8 c-6.4,0-12.1-2.2-17-6.5c-4.9-4.4-7.4-9.8-7.4-16.4V591.6z"></path><polygon class="st3" points="74.4,612.9 74.4,537.4 88.4,537.4 88.4,567.6 115.4,567.6 115.4,537.4 129.3,537.4 129.3,612.9  115.4,612.9 115.4,581.2 88.4,581.2 88.4,612.9 "></polygon><path class="st3" d="M166.5,579.8h16.1l-8.1-22.9L166.5,579.8z M137.6,612.9l31.5-75.5H180l31.8,75.5h-15.4l-8.2-19.5h-26.8 l-8.4,19.5H137.6z"></path><path class="st3" d="M233.4,573.3h7.7c0.6,0.1,1.3,0.1,1.9,0.1c0.7,0,1.4-0.1,2.1-0.2c1.3-0.2,2.6-0.5,3.8-1c1.3-0.4,2.3-1.1,3.2-2 c1.2-1.1,2-2.3,2.6-3.7c0.6-1.4,0.9-2.9,0.9-4.4c0-1.6-0.3-3.2-1-4.7c-0.7-1.5-1.7-2.8-3.1-3.7c-1.6-1.2-3.3-2-5-2.2 c-1.7-0.2-3.5-0.4-5.5-0.4h-7.8V573.3z M219.4,612.9v-75.5h21.9c3.6,0.1,7.1,0.5,10.4,1c3.3,0.5,6.4,2,9.2,4.4 c2.7,2.2,4.9,5,6.4,8.3c1.6,3.3,2.3,6.7,2.3,10.3c0,0.9-0.1,1.8-0.2,2.8c-0.1,1-0.3,1.9-0.5,2.9c-0.5,2-1.3,4-2.2,5.9 c-1,1.9-2,3.5-3.3,4.9c-1.8,2-3.9,3.5-6.1,4.7c-2.2,1.2-4.7,2-7.3,2.6l20.4,27.8h-17.3L233.6,584h-0.2v28.9H219.4z"></path><path class="st3" d="M292.6,570.7h2.6c0.3,0.1,0.5,0.1,0.8,0.1c0.2,0,0.5,0,0.8,0c0.5,0,1.1,0,1.7,0s1.1,0,1.7,0 c1-0.1,2-0.2,3.1-0.3c1-0.1,2-0.3,2.9-0.6c2-0.7,3.7-1.9,5-3.5c1.3-1.7,1.9-3.6,1.9-5.8c0-2.3-0.7-4.3-2-5.8 c-1.4-1.6-3.1-2.6-5.2-3.2c-0.7-0.2-1.6-0.4-2.5-0.5c-0.9-0.1-1.8-0.2-2.8-0.2c-0.6,0-1.2,0-1.8,0c-0.6,0-1.2,0-1.7,0 c-0.3,0-0.5,0-0.8,0c-0.3,0-0.5,0-0.8,0h-2.6V570.7z M292.6,612.9h-14v-75.5h17.8c0.2,0.1,0.4,0.1,0.7,0.1c0.2,0,0.5,0,0.7,0 c3.4,0,6.7,0.2,9.9,0.5c3.2,0.3,6.2,1.5,9.2,3.5c3.1,2.1,5.6,4.9,7.4,8.2c1.8,3.4,2.7,7,2.7,10.8c0,3.7-0.7,7.3-2.2,10.7 c-1.5,3.4-3.7,6.2-6.7,8.6c-2,1.6-4.3,2.8-6.8,3.4c-2.5,0.6-5.1,1-7.7,1.1c-1.1,0.1-2.2,0.1-3.2,0.1c-1.1,0-2.1,0-3.1,0 c-0.3,0-0.5,0-0.8,0c-0.3,0-0.5,0-0.8,0h-2.8V612.9z"></path><polygon class="st3" points="335.8,612.9 335.8,537.4 376.4,537.4 376.4,551 349.8,551 349.8,568.3 375.2,568.3 375.2,581.9  349.8,581.9 349.8,599.3 376.4,599.3 376.4,612.9 "></polygon><path class="st3" d="M402.9,573.3h7.7c0.6,0.1,1.3,0.1,1.9,0.1c0.7,0,1.4-0.1,2.1-0.2c1.3-0.2,2.6-0.5,3.8-1c1.3-0.4,2.3-1.1,3.2-2 c1.2-1.1,2-2.3,2.6-3.7c0.6-1.4,0.9-2.9,0.9-4.4c0-1.6-0.3-3.2-1-4.7c-0.7-1.5-1.7-2.8-3.1-3.7c-1.6-1.2-3.3-2-5-2.2 c-1.7-0.2-3.5-0.4-5.5-0.4h-7.8V573.3z M388.9,612.9v-75.5h21.9c3.6,0.1,7.1,0.5,10.4,1c3.3,0.5,6.4,2,9.2,4.4 c2.7,2.2,4.9,5,6.4,8.3c1.6,3.3,2.3,6.7,2.3,10.3c0,0.9-0.1,1.8-0.2,2.8c-0.1,1-0.3,1.9-0.5,2.9c-0.5,2-1.3,4-2.2,5.9 c-1,1.9-2,3.5-3.3,4.9c-1.8,2-3.9,3.5-6.1,4.7c-2.2,1.2-4.7,2-7.3,2.6l20.4,27.8h-17.3L403.1,584h-0.2v28.9H388.9z"></path><polygon class="st3" points="476.7,612.9 476.7,537.4 490.7,537.4 490.7,599.3 513.8,599.3 513.8,612.9 "></polygon><path class="st3" d="M544.3,579.8h16.1l-8.1-22.9L544.3,579.8z M515.4,612.9l31.5-75.5h10.9l31.8,75.5h-15.4l-8.2-19.5h-26.8 l-8.4,19.5H515.4z"></path><path class="st3" d="M611.2,566.4h2.7c0.1,0.1,0.3,0.1,0.4,0.1c0.1,0,0.2,0,0.3,0c0.5,0,1.1,0,1.7,0s1.2,0,1.8-0.1 c1,0,1.9-0.1,2.8-0.3c0.9-0.2,1.8-0.4,2.5-0.8c1.4-0.6,2.4-1.6,3.2-2.9c0.7-1.3,1.1-2.7,1.1-4.1c0-1.6-0.4-2.9-1.3-4.1 c-0.9-1.2-2-2-3.4-2.6c-0.5-0.3-1.2-0.5-1.8-0.6c-0.7-0.1-1.4-0.2-2.1-0.3c-0.1,0-0.3,0-0.5,0c-0.2,0-0.4,0-0.6,0 c-0.3,0-0.7,0-1.1,0s-0.7,0-1.1,0c-0.3,0.1-0.7,0.1-1,0.1c-0.3,0-0.7,0-1,0h-2.6V566.4z M611.2,599.3h5.8c2,0.1,4,0,5.9-0.3 c1.9-0.3,3.8-1,5.6-2.2c1.3-0.9,2.2-1.9,2.8-3.2c0.6-1.2,0.9-2.6,0.9-4.2c0-1.8-0.4-3.4-1.3-4.6c-0.9-1.2-2.1-2.3-3.7-3.2 c-1.5-0.7-3-1.2-4.6-1.3c-1.6-0.1-3.2-0.2-4.8-0.2c-0.1,0-0.2,0-0.3,0c-0.1,0-0.2,0-0.3,0h-6.1V599.3z M597.2,612.9v-75.5h13.7 c0.3,0.1,0.5,0.1,0.8,0.1c0.3,0,0.5,0,0.8,0c0.2,0,0.4,0,0.7,0c0.2,0,0.5,0,0.7,0c2.9,0,5.8,0.1,8.7,0.4c2.9,0.3,5.7,1.1,8.4,2.5 c3.1,1.6,5.7,3.9,7.7,7c2,3.1,3,6.4,3,10c0,2.9-0.7,5.7-2,8.4c-1.4,2.7-3.4,4.7-6.2,6c4.2,1.3,7.3,3.6,9.5,6.9 c2.2,3.3,3.3,7.1,3.3,11.4c0,3.7-0.8,7-2.4,10.1c-1.6,3.1-3.9,5.7-6.8,7.9c-2.4,1.8-5,3-7.9,3.6c-2.9,0.6-5.8,1-8.7,1.2 c-0.7,0.1-1.5,0.1-2.2,0.1c-0.7,0-1.4,0-2.2,0H597.2z"></path><path class="st3" d="M651,591.6h14.6c0,3.1,1.1,5.4,3.2,7.1c2.1,1.7,4.6,2.5,7.4,2.5c2.7,0,5-0.9,6.9-2.7c1.9-1.8,2.9-4.1,2.9-6.8 c0-3.7-1.2-6.5-3.6-8.2c-2.4-1.7-5-3-7.9-4c-0.3-0.1-0.6-0.3-0.9-0.4c-0.3-0.1-0.6-0.2-0.9-0.3c-0.2-0.1-0.4-0.1-0.6-0.2 c-0.2-0.1-0.4-0.1-0.6-0.2c-2.2-0.7-4.4-1.6-6.3-2.5c-2-0.9-3.8-2.3-5.6-4c-1.6-1.6-2.8-3.5-3.8-5.6c-1-2.1-1.7-4.3-2-6.5 c0-0.4,0-0.8-0.1-1.2c0-0.4-0.1-0.8-0.1-1.2c0-6.2,2.2-11.3,6.6-15.4c4.4-4.1,9.6-6.1,15.6-6.1c5.9,0,11,2.1,15.5,6.3 c4.5,4.2,6.7,9.2,6.6,15.2l-14.4-0.1c-0.1-2.3-1-4.2-2.7-5.6c-1.7-1.4-3.6-2.1-5.8-2.1c-2.2,0-4.1,0.7-5.4,2.2c-1.4,1.5-2,3.3-2,5.5 c0,0,0,0,0,0.1c0,0,0,0.1,0,0.1s0,0,0,0.1c0,0,0,0.1,0,0.1c-0.1,2.5,0.7,4.3,2.5,5.6c1.7,1.3,3.6,2.3,5.6,3.1 c0.2,0.1,0.4,0.2,0.7,0.3c0.3,0.1,0.5,0.2,0.7,0.3c0.3,0.1,0.7,0.3,1,0.4c0.3,0.1,0.7,0.2,1,0.4c2.3,0.7,4.5,1.6,6.7,2.5 c2.1,0.9,4.1,2.2,6,3.7c2.7,2.1,4.7,4.6,6,7.4c1.3,2.8,1.9,6.1,1.9,9.8c0,6.7-2.4,12.4-7.3,17c-4.8,4.6-10.6,6.8-17.3,6.8 c-6.4,0-12.1-2.2-17-6.5c-4.9-4.4-7.4-9.8-7.4-16.4V591.6z"></path><rect x="171.8" y="629.2" class="st4" width="10.2" height="53.9"></rect><polygon class="st4" points="188,629.2 222.2,629.2 222.2,635.3 210.6,635.3 210.6,683.1 200.1,683.1 200.1,635.3 188,635.3 "></polygon><path class="st4" d="M248.2,674c3.6,1.8,7,2.8,10.1,2.9c3.1-0.1,5.5-0.9,7.2-2.5c1.7-1.6,2.3-3.6,1.9-6c-0.3-2.1-1.3-4-3-5.6 c-1.7-1.6-4.2-3.5-7.4-5.6c-3.2-2.1-5.7-4.1-7.6-5.8c-1.9-1.8-3-3.8-3.5-6.2c-0.8-5.1,0.4-9.2,3.6-12.2c3.2-3,7.6-4.5,13.2-4.5 c3.8,0,7.6,0.6,11.2,1.9v7.1c-2.5-1.5-5.4-2.2-8.6-2.2c-2.7,0-5,0.7-6.7,2c-1.7,1.3-2.6,3.2-2.6,5.6c0,1.7,0.7,3.2,2.2,4.5 c1.5,1.3,4,3.3,7.7,5.8c3.6,2.6,6.5,5,8.5,7.2c2,2.2,3.1,4.7,3.3,7.4c0.4,5.3-1.3,9.3-5,12c-3.7,2.7-8.3,4-13.5,4 c-4.5,0-8.1-0.8-11-2.5V674z"></path><path class="st4" d="M294.4,658.2c-0.2,12.5,2.9,18.8,9.3,19c0.3-0.1,0.5-0.1,0.8-0.1c2.3-0.2,4-1,5.2-2.6c1.2-1.5,2-3.2,2.4-5.2 c0.4-1.9,0.6-4.1,0.7-6.5c0.1-2.4,0.2-5.1,0.2-8c0.1-4-0.2-7.5-0.9-10.5c-0.7-3-1.6-5.4-3-6.9c-1.3-1.6-3.1-2.4-5.2-2.4h-0.4 c-3.7,0.2-6.1,2.1-7.3,5.8c-1.2,3.7-1.8,8.5-2,14.4C294.3,656,294.4,657,294.4,658.2 M283.4,659.8c0-1.7-0.1-3-0.2-3.9 c0.1-4.6,0.6-8.8,1.4-12.5c0.8-3.7,2.4-6.9,4.8-9.6c2.4-2.7,5.7-4.3,10-4.9c5-0.7,9.2-0.3,12.7,1.1c3.4,1.4,6,3.4,7.8,6.1 c1.7,2.7,2.8,5.7,3.1,8.9c0.5,5.9,0.8,10.3,0.8,13.1c0,8-1.5,14.3-4.6,18.9c-3.1,4.5-8.3,6.8-15.8,6.8c-6.2,0-11.1-1.9-14.6-5.8 C285.4,674.1,283.6,668.1,283.4,659.8z"></path><polygon class="st4" points="334.5,629.2 344.7,629.2 344.7,676.8 362.2,676.8 362.2,683.1 334.5,683.1 "></polygon><path class="st4" d="M368.5,629.2h10.2v37.5c0,3.4,0.4,6,1.3,7.7c0.9,1.7,2.8,2.6,5.8,2.6c3.5,0,5.7-0.6,6.6-1.7 c0.9-1.1,1.4-3.5,1.4-7.1v-39.1h10.4L404,668c0.1,5.7-1,9.7-3.5,12c-2.5,2.4-7.1,3.6-14,3.7c-6.5,0.1-11.2-1.1-13.9-3.7 c-2.7-2.6-4.1-6.8-4.1-12.5V629.2z"></path><polygon class="st4" points="409.9,629.2 444,629.2 444,635.3 432.4,635.3 432.4,683.1 421.9,683.1 421.9,635.3 409.9,635.3 "></polygon><rect x="449.7" y="629.2" class="st4" width="10.2" height="53.9"></rect><path class="st4" d="M481.6,658.2c-0.2,12.5,2.9,18.8,9.3,19c0.3-0.1,0.5-0.1,0.8-0.1c2.3-0.2,4-1,5.2-2.6c1.2-1.5,2-3.2,2.4-5.2 c0.4-1.9,0.6-4.1,0.7-6.5c0.1-2.4,0.2-5.1,0.2-8c0.1-4-0.2-7.5-0.9-10.5c-0.7-3-1.6-5.4-3-6.9c-1.3-1.6-3.1-2.4-5.2-2.4h-0.4 c-3.7,0.2-6.1,2.1-7.3,5.8c-1.2,3.7-1.8,8.5-2,14.4C481.5,656,481.6,657,481.6,658.2 M470.6,659.8c0-1.7-0.1-3-0.2-3.9 c0.1-4.6,0.6-8.8,1.4-12.5c0.8-3.7,2.4-6.9,4.8-9.6c2.4-2.7,5.7-4.3,10-4.9c5-0.7,9.2-0.3,12.7,1.1c3.4,1.4,6,3.4,7.8,6.1 c1.7,2.7,2.8,5.7,3.1,8.9c0.5,5.9,0.8,10.3,0.8,13.1c0,8-1.5,14.3-4.6,18.9c-3.1,4.5-8.3,6.8-15.8,6.8c-6.2,0-11.1-1.9-14.6-5.8 C472.6,674.1,470.8,668.1,470.6,659.8z"></path><path class="st4" d="M521.7,683.1v-53.9h9.8l18.1,40.9l0.4-0.1c-0.3-2.9-0.5-5.5-0.8-7.9c-0.3-2.4-0.6-5.2-0.9-8.2 c-0.3-3-0.5-6.1-0.7-9c-0.1-3-0.2-8.2-0.2-15.5h10.4v53.9h-9.7l-18-41.6l-0.2,0.1c0.6,4.8,1,8.5,1.3,11.2c0.2,2.6,0.4,5.5,0.6,8.6 c0.2,3.1,0.3,6.5,0.3,10.2c0,2.4,0,4.4-0.1,6c0,1.6-0.1,3.4-0.2,5.4H521.7z"></path><path class="st4" d="M569.6,674c3.6,1.8,7,2.8,10.1,2.9c3.1-0.1,5.5-0.9,7.2-2.5c1.7-1.6,2.3-3.6,1.9-6c-0.3-2.1-1.3-4-3-5.6 c-1.7-1.6-4.2-3.5-7.4-5.6c-3.2-2.1-5.7-4.1-7.6-5.8c-1.9-1.8-3-3.8-3.5-6.2c-0.8-5.1,0.4-9.2,3.6-12.2c3.2-3,7.6-4.5,13.2-4.5 c3.8,0,7.6,0.6,11.2,1.9v7.1c-2.5-1.5-5.4-2.2-8.6-2.2c-2.7,0-5,0.7-6.7,2c-1.7,1.3-2.6,3.2-2.6,5.6c0,1.7,0.7,3.2,2.2,4.5 c1.5,1.3,4,3.3,7.7,5.8c3.6,2.6,6.5,5,8.5,7.2c2,2.2,3.1,4.7,3.3,7.4c0.4,5.3-1.3,9.3-5,12c-3.7,2.7-8.3,4-13.5,4 c-4.5,0-8.1-0.8-11-2.5V674z"></path></svg>